<?xml version="1.0" encoding="UTF-8"?>
<svg width="837px" height="138px" viewBox="0 0 837 138" version="1.1" xmlns="http://www.w3.org/2000/svg" xmlns:xlink="http://www.w3.org/1999/xlink">
    <!-- Generator: Sketch 49.1 (51147) - http://www.bohemiancoding.com/sketch -->
    <title>Artboard 4</title>
    <desc>Created with Sketch.</desc>
    <defs></defs>
    <g id="Artboard-4" stroke="none" stroke-width="1" fill="none" fill-rule="evenodd">
        <g id="Group-2">
            <g id="Group" transform="translate(0.000000, 10.000000)" fill="#FFFFFF" fill-rule="nonzero">
                <path d="M20.572,116.088 C18.752,117.908 15.84,117.908 14.02,116.088 L1.936,104.004 C0.116,102.184 0.116,99.272 1.936,97.451 L40.593,58.794 L1.936,20.138 C0.116,18.318 0.116,15.406 1.936,13.586 L14.021,1.501 C15.841,-0.319 18.753,-0.319 20.573,1.501 L74.59,55.519 C76.41,57.339 76.41,60.251 74.59,62.071 L20.572,116.088 Z" id="Shape"></path>
                <path d="M113.745,116.088 C111.925,117.908 109.013,117.908 107.193,116.088 L95.108,104.004 C93.288,102.184 93.288,99.272 95.108,97.451 L133.765,58.794 L95.108,20.137 C93.288,18.317 93.288,15.405 95.108,13.585 L107.193,1.5 C109.013,-0.32 111.925,-0.32 113.745,1.5 L167.763,55.518 C169.583,57.338 169.583,60.25 167.763,62.07 L113.745,116.088 Z" id="Shape"></path>
            </g>
            <rect id="Rectangle" fill="#000000" opacity="0.5" x="204" y="0" width="633" height="138" rx="8"></rect>
            <path d="M252.836,105.264 L238.076,105.264 C238.436,102.168 238.652,98.568 238.652,94.752 L238.652,59.616 C238.652,54.936 238.508,51.984 238.076,48.312 L252.26,48.312 L252.26,50.76 C252.26,51.192 252.188,51.768 252.188,52.128 C256.508,48.528 260.972,47.016 266.948,47.016 C273.284,47.016 278.468,48.888 282.212,52.56 C286.028,56.376 287.972,62.064 287.972,69.336 C287.972,76.68 285.812,82.656 281.708,86.76 C278.036,90.432 272.78,92.448 266.876,92.448 C263.492,92.448 259.82,91.728 257.156,90.576 C255.284,89.784 254.204,88.992 252.188,87.264 C252.188,87.912 252.188,88.848 252.26,89.856 L252.26,94.824 C252.26,98.856 252.404,102.168 252.836,105.264 Z M263.708,81.576 C266.444,81.576 268.892,80.64 270.764,78.84 C272.78,76.896 273.932,73.584 273.932,69.48 C273.932,62.136 270.044,57.888 263.276,57.888 C257.3,57.888 252.404,63.144 252.404,69.696 C252.404,76.464 257.228,81.576 263.708,81.576 Z M322.604,63.792 L322.604,62.136 C322.604,58.68 320.516,57.096 315.764,57.096 C311.156,57.096 308.708,58.608 307.628,62.136 L293.876,59.904 C295.316,55.656 296.9,53.352 299.924,51.192 C303.812,48.456 309.14,47.088 316.124,47.088 C321.452,47.088 326.636,48.096 329.444,49.608 C334.052,52.128 336.068,56.088 336.068,62.568 L336.068,82.008 C336.068,86.4 336.212,88.992 336.572,92.232 L322.604,92.232 L322.604,88.92 C318.572,92.016 314.54,93.24 308.636,93.24 C303.164,93.24 299.06,91.944 296.18,89.28 C293.588,86.904 292.22,83.448 292.22,79.488 C292.22,74.952 294.02,71.352 297.476,68.976 C301.148,66.384 305.972,64.872 312.452,64.296 C315.26,64.008 317.42,63.936 322.604,63.792 Z M322.604,75.024 L322.604,73.008 C316.196,73.152 313.1,73.512 310.148,74.448 C307.556,75.312 305.972,77.112 305.972,79.2 C305.972,81.792 308.132,83.304 311.876,83.304 C314.828,83.304 318.068,82.224 320.012,80.568 C321.668,79.128 322.604,77.184 322.604,75.024 Z M377.828,92.232 L377.828,89.928 C377.828,89.496 377.828,88.992 377.9,88.344 C373.076,92.232 369.404,93.528 363.356,93.528 C350.252,93.528 342.332,84.744 342.332,70.2 C342.332,62.712 344.492,56.736 348.524,52.632 C352.196,48.96 357.236,47.016 363.14,47.016 C368.972,47.016 373.148,48.528 377.9,52.344 C377.828,51.264 377.828,50.616 377.828,49.608 L377.828,43.632 C377.828,38.592 377.684,35.496 377.252,32.328 L392.012,32.328 C391.58,35.352 391.436,38.808 391.436,43.632 L391.436,80.928 C391.436,85.752 391.58,88.704 392.012,92.232 L377.828,92.232 Z M366.524,58.032 C360.26,58.032 356.3,62.712 356.3,70.272 C356.3,74.376 357.452,77.688 359.612,79.776 C361.34,81.504 363.932,82.512 366.596,82.512 C373.004,82.512 377.684,77.184 377.684,70.056 C377.684,63.072 373.076,58.032 366.524,58.032 Z M397.916,79.128 L412.172,77.544 C412.892,81.288 415.34,82.944 420.164,82.944 C424.484,82.944 426.932,81.72 426.932,79.488 C426.932,78.408 426.356,77.472 425.348,76.896 C424.34,76.32 423.404,76.032 419.444,75.24 C413.972,74.16 411.164,73.44 408.788,72.648 C405.332,71.352 402.956,69.696 401.588,67.536 C400.436,65.592 399.788,63.144 399.788,60.696 C399.788,52.056 407.06,46.8 419.084,46.8 C425.924,46.8 431.036,48.312 434.42,51.408 C436.796,53.496 437.948,55.584 439.1,59.616 L425.204,61.128 C424.844,58.176 423.044,56.88 419.156,56.88 C415.412,56.88 413.108,58.104 413.108,59.976 C413.108,61.92 414.62,62.64 421.748,64.224 C428.804,65.736 431.036,66.384 433.556,67.68 C438.236,69.984 440.468,73.512 440.468,78.696 C440.468,82.512 439.172,85.968 436.796,88.272 C433.34,91.728 427.436,93.528 419.732,93.528 C410.66,93.528 404.252,91.08 400.796,86.328 C399.356,84.312 398.636,82.584 397.916,79.128 Z M485.036,32.328 L485.036,46.8 C485.036,50.616 483.812,53.64 481.22,55.944 C479.348,57.744 477.692,58.536 474.236,59.328 L471.068,53.856 C473.876,53.424 475.316,52.848 476.756,51.624 C478.052,50.544 478.556,49.392 478.772,46.8 L470.492,46.8 L470.492,32.328 L485.036,32.328 Z M507.356,92.232 L492.452,92.232 C492.884,88.848 493.028,85.824 493.028,81.36 L493.028,59.184 C493.028,54.216 492.884,51.192 492.452,48.312 L506.78,48.312 L506.78,51.336 C506.78,51.768 506.708,52.848 506.708,53.352 C511.244,49.032 515.636,47.232 521.54,47.232 C526.508,47.232 530.468,48.6 533.132,51.264 C536.012,54.144 537.236,57.672 537.236,63.36 L537.236,81.432 C537.236,85.608 537.452,89.208 537.812,92.232 L522.836,92.232 C523.268,88.776 523.412,85.752 523.412,81.36 L523.412,66.6 C523.412,63.72 523.124,62.496 522.26,61.272 C521.324,59.976 519.668,59.256 517.508,59.256 C513.476,59.256 509.876,61.776 506.78,66.816 L506.78,81.36 C506.78,85.464 506.924,88.488 507.356,92.232 Z M559.7,32.328 L559.7,46.8 C559.7,50.616 558.476,53.64 555.884,55.944 C554.012,57.744 552.356,58.536 548.9,59.328 L545.732,53.856 C548.54,53.424 549.98,52.848 551.42,51.624 C552.716,50.544 553.22,49.392 553.436,46.8 L545.156,46.8 L545.156,32.328 L559.7,32.328 Z M605.852,105.264 L591.092,105.264 C591.452,102.168 591.668,98.568 591.668,94.752 L591.668,59.616 C591.668,54.936 591.524,51.984 591.092,48.312 L605.276,48.312 L605.276,50.76 C605.276,51.192 605.204,51.768 605.204,52.128 C609.524,48.528 613.988,47.016 619.964,47.016 C626.3,47.016 631.484,48.888 635.228,52.56 C639.044,56.376 640.988,62.064 640.988,69.336 C640.988,76.68 638.828,82.656 634.724,86.76 C631.052,90.432 625.796,92.448 619.892,92.448 C616.508,92.448 612.836,91.728 610.172,90.576 C608.3,89.784 607.22,88.992 605.204,87.264 C605.204,87.912 605.204,88.848 605.276,89.856 L605.276,94.824 C605.276,98.856 605.42,102.168 605.852,105.264 Z M616.724,81.576 C619.46,81.576 621.908,80.64 623.78,78.84 C625.796,76.896 626.948,73.584 626.948,69.48 C626.948,62.136 623.06,57.888 616.292,57.888 C610.316,57.888 605.42,63.144 605.42,69.696 C605.42,76.464 610.244,81.576 616.724,81.576 Z M675.62,63.792 L675.62,62.136 C675.62,58.68 673.532,57.096 668.78,57.096 C664.172,57.096 661.724,58.608 660.644,62.136 L646.892,59.904 C648.332,55.656 649.916,53.352 652.94,51.192 C656.828,48.456 662.156,47.088 669.14,47.088 C674.468,47.088 679.652,48.096 682.46,49.608 C687.068,52.128 689.084,56.088 689.084,62.568 L689.084,82.008 C689.084,86.4 689.228,88.992 689.588,92.232 L675.62,92.232 L675.62,88.92 C671.588,92.016 667.556,93.24 661.652,93.24 C656.18,93.24 652.076,91.944 649.196,89.28 C646.604,86.904 645.236,83.448 645.236,79.488 C645.236,74.952 647.036,71.352 650.492,68.976 C654.164,66.384 658.988,64.872 665.468,64.296 C668.276,64.008 670.436,63.936 675.62,63.792 Z M675.62,75.024 L675.62,73.008 C669.212,73.152 666.116,73.512 663.164,74.448 C660.572,75.312 658.988,77.112 658.988,79.2 C658.988,81.792 661.148,83.304 664.892,83.304 C667.844,83.304 671.084,82.224 673.028,80.568 C674.684,79.128 675.62,77.184 675.62,75.024 Z M746.756,92.232 L734.516,92.232 C734.156,90.144 733.58,87.984 732.284,83.808 L727.892,69.408 C727.532,68.184 727.244,67.248 727.1,66.6 C726.596,68.256 726.596,68.4 726.236,69.408 L721.844,83.808 C720.836,86.976 719.9,90.504 719.612,92.232 L707.372,92.232 C706.868,89.64 706.364,87.696 705.212,83.808 L697.148,57.672 C696.356,55.152 695.276,51.984 693.908,48.312 L709.388,48.312 C709.532,50.832 709.964,53.424 710.756,56.808 L713.852,69.696 C714.212,71.424 714.5,72.576 714.572,73.152 C715.436,70.344 715.436,70.344 715.58,69.696 L719.612,56.592 C721.556,49.824 721.556,49.824 721.844,48.312 L732.356,48.312 C732.572,49.752 733.436,53.208 734.516,56.592 L738.692,70.2 C738.836,70.704 739.268,72.288 739.556,73.152 C739.772,72.072 739.772,72.072 740.204,70.128 L743.228,57.384 C744.092,53.64 744.596,50.616 744.74,48.312 L760.22,48.312 C759.14,51.048 758.06,54.288 756.98,57.672 L748.916,83.808 C747.62,87.984 747.188,89.784 746.756,92.232 Z M762.812,79.128 L777.068,77.544 C777.788,81.288 780.236,82.944 785.06,82.944 C789.38,82.944 791.828,81.72 791.828,79.488 C791.828,78.408 791.252,77.472 790.244,76.896 C789.236,76.32 788.3,76.032 784.34,75.24 C778.868,74.16 776.06,73.44 773.684,72.648 C770.228,71.352 767.852,69.696 766.484,67.536 C765.332,65.592 764.684,63.144 764.684,60.696 C764.684,52.056 771.956,46.8 783.98,46.8 C790.82,46.8 795.932,48.312 799.316,51.408 C801.692,53.496 802.844,55.584 803.996,59.616 L790.1,61.128 C789.74,58.176 787.94,56.88 784.052,56.88 C780.308,56.88 778.004,58.104 778.004,59.976 C778.004,61.92 779.516,62.64 786.644,64.224 C793.7,65.736 795.932,66.384 798.452,67.68 C803.132,69.984 805.364,73.512 805.364,78.696 C805.364,82.512 804.068,85.968 801.692,88.272 C798.236,91.728 792.332,93.528 784.628,93.528 C775.556,93.528 769.148,91.08 765.692,86.328 C764.252,84.312 763.532,82.584 762.812,79.128 Z" id="pads-’n’-paws" fill="#FFFFFF"></path>
        </g>
    </g>
</svg>