<?xml version="1.0" encoding="UTF-8"?>
<svg width="837px" height="138px" viewBox="0 0 837 138" version="1.1" xmlns="http://www.w3.org/2000/svg" xmlns:xlink="http://www.w3.org/1999/xlink">
    <!-- Generator: Sketch 49.1 (51147) - http://www.bohemiancoding.com/sketch -->
    <title>Artboard 4 Copy</title>
    <desc>Created with Sketch.</desc>
    <defs></defs>
    <g id="Artboard-4-Copy" stroke="none" stroke-width="1" fill="none" fill-rule="evenodd">
        <g id="Group-2" transform="translate(2.000000, 0.000000)">
            <g id="Group" opacity="0.308310688" transform="translate(0.000000, 10.000000)" fill="#000000" fill-rule="nonzero">
                <path d="M20.572,116.087 C18.752,117.907 15.84,117.907 14.02,116.087 L1.936,104.003 C0.116,102.183 0.116,99.271 1.936,97.45 L40.593,58.794 L1.936,20.137 C0.116,18.317 0.116,15.405 1.936,13.585 L14.021,1.5 C15.841,-0.32 18.753,-0.32 20.573,1.5 L74.59,55.518 C76.41,57.338 76.41,60.25 74.59,62.07 L20.572,116.087 Z" id="Shape" opacity="0.5"></path>
                <path d="M113.744,116.087 C111.924,117.907 109.012,117.907 107.192,116.087 L95.107,104.003 C93.287,102.183 93.287,99.271 95.107,97.45 L133.764,58.794 L95.107,20.137 C93.287,18.317 93.287,15.405 95.107,13.585 L107.192,1.5 C109.012,-0.32 111.924,-0.32 113.744,1.5 L167.762,55.518 C169.582,57.338 169.582,60.25 167.762,62.07 L113.744,116.087 Z" id="Shape" opacity="0.5"></path>
            </g>
            <rect id="Rectangle" fill="#000000" opacity="0.5" x="202" y="0" width="633" height="138" rx="8"></rect>
            <path d="M250.836,105.264 L236.076,105.264 C236.436,102.168 236.652,98.568 236.652,94.752 L236.652,59.616 C236.652,54.936 236.508,51.984 236.076,48.312 L250.26,48.312 L250.26,50.76 C250.26,51.192 250.188,51.768 250.188,52.128 C254.508,48.528 258.972,47.016 264.948,47.016 C271.284,47.016 276.468,48.888 280.212,52.56 C284.028,56.376 285.972,62.064 285.972,69.336 C285.972,76.68 283.812,82.656 279.708,86.76 C276.036,90.432 270.78,92.448 264.876,92.448 C261.492,92.448 257.82,91.728 255.156,90.576 C253.284,89.784 252.204,88.992 250.188,87.264 C250.188,87.912 250.188,88.848 250.26,89.856 L250.26,94.824 C250.26,98.856 250.404,102.168 250.836,105.264 Z M261.708,81.576 C264.444,81.576 266.892,80.64 268.764,78.84 C270.78,76.896 271.932,73.584 271.932,69.48 C271.932,62.136 268.044,57.888 261.276,57.888 C255.3,57.888 250.404,63.144 250.404,69.696 C250.404,76.464 255.228,81.576 261.708,81.576 Z M320.604,63.792 L320.604,62.136 C320.604,58.68 318.516,57.096 313.764,57.096 C309.156,57.096 306.708,58.608 305.628,62.136 L291.876,59.904 C293.316,55.656 294.9,53.352 297.924,51.192 C301.812,48.456 307.14,47.088 314.124,47.088 C319.452,47.088 324.636,48.096 327.444,49.608 C332.052,52.128 334.068,56.088 334.068,62.568 L334.068,82.008 C334.068,86.4 334.212,88.992 334.572,92.232 L320.604,92.232 L320.604,88.92 C316.572,92.016 312.54,93.24 306.636,93.24 C301.164,93.24 297.06,91.944 294.18,89.28 C291.588,86.904 290.22,83.448 290.22,79.488 C290.22,74.952 292.02,71.352 295.476,68.976 C299.148,66.384 303.972,64.872 310.452,64.296 C313.26,64.008 315.42,63.936 320.604,63.792 Z M320.604,75.024 L320.604,73.008 C314.196,73.152 311.1,73.512 308.148,74.448 C305.556,75.312 303.972,77.112 303.972,79.2 C303.972,81.792 306.132,83.304 309.876,83.304 C312.828,83.304 316.068,82.224 318.012,80.568 C319.668,79.128 320.604,77.184 320.604,75.024 Z M375.828,92.232 L375.828,89.928 C375.828,89.496 375.828,88.992 375.9,88.344 C371.076,92.232 367.404,93.528 361.356,93.528 C348.252,93.528 340.332,84.744 340.332,70.2 C340.332,62.712 342.492,56.736 346.524,52.632 C350.196,48.96 355.236,47.016 361.14,47.016 C366.972,47.016 371.148,48.528 375.9,52.344 C375.828,51.264 375.828,50.616 375.828,49.608 L375.828,43.632 C375.828,38.592 375.684,35.496 375.252,32.328 L390.012,32.328 C389.58,35.352 389.436,38.808 389.436,43.632 L389.436,80.928 C389.436,85.752 389.58,88.704 390.012,92.232 L375.828,92.232 Z M364.524,58.032 C358.26,58.032 354.3,62.712 354.3,70.272 C354.3,74.376 355.452,77.688 357.612,79.776 C359.34,81.504 361.932,82.512 364.596,82.512 C371.004,82.512 375.684,77.184 375.684,70.056 C375.684,63.072 371.076,58.032 364.524,58.032 Z M395.916,79.128 L410.172,77.544 C410.892,81.288 413.34,82.944 418.164,82.944 C422.484,82.944 424.932,81.72 424.932,79.488 C424.932,78.408 424.356,77.472 423.348,76.896 C422.34,76.32 421.404,76.032 417.444,75.24 C411.972,74.16 409.164,73.44 406.788,72.648 C403.332,71.352 400.956,69.696 399.588,67.536 C398.436,65.592 397.788,63.144 397.788,60.696 C397.788,52.056 405.06,46.8 417.084,46.8 C423.924,46.8 429.036,48.312 432.42,51.408 C434.796,53.496 435.948,55.584 437.1,59.616 L423.204,61.128 C422.844,58.176 421.044,56.88 417.156,56.88 C413.412,56.88 411.108,58.104 411.108,59.976 C411.108,61.92 412.62,62.64 419.748,64.224 C426.804,65.736 429.036,66.384 431.556,67.68 C436.236,69.984 438.468,73.512 438.468,78.696 C438.468,82.512 437.172,85.968 434.796,88.272 C431.34,91.728 425.436,93.528 417.732,93.528 C408.66,93.528 402.252,91.08 398.796,86.328 C397.356,84.312 396.636,82.584 395.916,79.128 Z M483.036,32.328 L483.036,46.8 C483.036,50.616 481.812,53.64 479.22,55.944 C477.348,57.744 475.692,58.536 472.236,59.328 L469.068,53.856 C471.876,53.424 473.316,52.848 474.756,51.624 C476.052,50.544 476.556,49.392 476.772,46.8 L468.492,46.8 L468.492,32.328 L483.036,32.328 Z M505.356,92.232 L490.452,92.232 C490.884,88.848 491.028,85.824 491.028,81.36 L491.028,59.184 C491.028,54.216 490.884,51.192 490.452,48.312 L504.78,48.312 L504.78,51.336 C504.78,51.768 504.708,52.848 504.708,53.352 C509.244,49.032 513.636,47.232 519.54,47.232 C524.508,47.232 528.468,48.6 531.132,51.264 C534.012,54.144 535.236,57.672 535.236,63.36 L535.236,81.432 C535.236,85.608 535.452,89.208 535.812,92.232 L520.836,92.232 C521.268,88.776 521.412,85.752 521.412,81.36 L521.412,66.6 C521.412,63.72 521.124,62.496 520.26,61.272 C519.324,59.976 517.668,59.256 515.508,59.256 C511.476,59.256 507.876,61.776 504.78,66.816 L504.78,81.36 C504.78,85.464 504.924,88.488 505.356,92.232 Z M557.7,32.328 L557.7,46.8 C557.7,50.616 556.476,53.64 553.884,55.944 C552.012,57.744 550.356,58.536 546.9,59.328 L543.732,53.856 C546.54,53.424 547.98,52.848 549.42,51.624 C550.716,50.544 551.22,49.392 551.436,46.8 L543.156,46.8 L543.156,32.328 L557.7,32.328 Z M603.852,105.264 L589.092,105.264 C589.452,102.168 589.668,98.568 589.668,94.752 L589.668,59.616 C589.668,54.936 589.524,51.984 589.092,48.312 L603.276,48.312 L603.276,50.76 C603.276,51.192 603.204,51.768 603.204,52.128 C607.524,48.528 611.988,47.016 617.964,47.016 C624.3,47.016 629.484,48.888 633.228,52.56 C637.044,56.376 638.988,62.064 638.988,69.336 C638.988,76.68 636.828,82.656 632.724,86.76 C629.052,90.432 623.796,92.448 617.892,92.448 C614.508,92.448 610.836,91.728 608.172,90.576 C606.3,89.784 605.22,88.992 603.204,87.264 C603.204,87.912 603.204,88.848 603.276,89.856 L603.276,94.824 C603.276,98.856 603.42,102.168 603.852,105.264 Z M614.724,81.576 C617.46,81.576 619.908,80.64 621.78,78.84 C623.796,76.896 624.948,73.584 624.948,69.48 C624.948,62.136 621.06,57.888 614.292,57.888 C608.316,57.888 603.42,63.144 603.42,69.696 C603.42,76.464 608.244,81.576 614.724,81.576 Z M673.62,63.792 L673.62,62.136 C673.62,58.68 671.532,57.096 666.78,57.096 C662.172,57.096 659.724,58.608 658.644,62.136 L644.892,59.904 C646.332,55.656 647.916,53.352 650.94,51.192 C654.828,48.456 660.156,47.088 667.14,47.088 C672.468,47.088 677.652,48.096 680.46,49.608 C685.068,52.128 687.084,56.088 687.084,62.568 L687.084,82.008 C687.084,86.4 687.228,88.992 687.588,92.232 L673.62,92.232 L673.62,88.92 C669.588,92.016 665.556,93.24 659.652,93.24 C654.18,93.24 650.076,91.944 647.196,89.28 C644.604,86.904 643.236,83.448 643.236,79.488 C643.236,74.952 645.036,71.352 648.492,68.976 C652.164,66.384 656.988,64.872 663.468,64.296 C666.276,64.008 668.436,63.936 673.62,63.792 Z M673.62,75.024 L673.62,73.008 C667.212,73.152 664.116,73.512 661.164,74.448 C658.572,75.312 656.988,77.112 656.988,79.2 C656.988,81.792 659.148,83.304 662.892,83.304 C665.844,83.304 669.084,82.224 671.028,80.568 C672.684,79.128 673.62,77.184 673.62,75.024 Z M744.756,92.232 L732.516,92.232 C732.156,90.144 731.58,87.984 730.284,83.808 L725.892,69.408 C725.532,68.184 725.244,67.248 725.1,66.6 C724.596,68.256 724.596,68.4 724.236,69.408 L719.844,83.808 C718.836,86.976 717.9,90.504 717.612,92.232 L705.372,92.232 C704.868,89.64 704.364,87.696 703.212,83.808 L695.148,57.672 C694.356,55.152 693.276,51.984 691.908,48.312 L707.388,48.312 C707.532,50.832 707.964,53.424 708.756,56.808 L711.852,69.696 C712.212,71.424 712.5,72.576 712.572,73.152 C713.436,70.344 713.436,70.344 713.58,69.696 L717.612,56.592 C719.556,49.824 719.556,49.824 719.844,48.312 L730.356,48.312 C730.572,49.752 731.436,53.208 732.516,56.592 L736.692,70.2 C736.836,70.704 737.268,72.288 737.556,73.152 C737.772,72.072 737.772,72.072 738.204,70.128 L741.228,57.384 C742.092,53.64 742.596,50.616 742.74,48.312 L758.22,48.312 C757.14,51.048 756.06,54.288 754.98,57.672 L746.916,83.808 C745.62,87.984 745.188,89.784 744.756,92.232 Z M760.812,79.128 L775.068,77.544 C775.788,81.288 778.236,82.944 783.06,82.944 C787.38,82.944 789.828,81.72 789.828,79.488 C789.828,78.408 789.252,77.472 788.244,76.896 C787.236,76.32 786.3,76.032 782.34,75.24 C776.868,74.16 774.06,73.44 771.684,72.648 C768.228,71.352 765.852,69.696 764.484,67.536 C763.332,65.592 762.684,63.144 762.684,60.696 C762.684,52.056 769.956,46.8 781.98,46.8 C788.82,46.8 793.932,48.312 797.316,51.408 C799.692,53.496 800.844,55.584 801.996,59.616 L788.1,61.128 C787.74,58.176 785.94,56.88 782.052,56.88 C778.308,56.88 776.004,58.104 776.004,59.976 C776.004,61.92 777.516,62.64 784.644,64.224 C791.7,65.736 793.932,66.384 796.452,67.68 C801.132,69.984 803.364,73.512 803.364,78.696 C803.364,82.512 802.068,85.968 799.692,88.272 C796.236,91.728 790.332,93.528 782.628,93.528 C773.556,93.528 767.148,91.08 763.692,86.328 C762.252,84.312 761.532,82.584 760.812,79.128 Z" id="pads-’n’-paws" fill="#FFFFFF"></path>
        </g>
    </g>
</svg>